<?xml version="1.0" encoding="UTF-8"?><svg id="Data-Monogramme-Couleur" xmlns="http://www.w3.org/2000/svg" viewBox="0 0 800 800"><defs><style>.cls-1{fill:#df0110;}.cls-2{fill:#020096;}</style></defs><path class="cls-2" d="m193.91,282.75c54.11,0,94.7,19.54,126.27,53.36V112.89h78.92v563.69h-78.92v-38.33c-31.57,33.82-72.15,53.36-126.27,53.36C74.41,691.61,0,597.67,0,487.18s74.41-204.43,193.91-204.43Zm9.77,335.96c48.85,0,90.94-23.3,116.5-63.13v-136.79c-27.81-41.34-69.15-63.13-116.5-63.13-72.9,0-121.76,57.12-121.76,131.53s48.85,131.53,121.76,131.53Z"/><path class="cls-2" d="m694.78,160.99c0-28.56,24.05-52.61,52.61-52.61s52.61,24.05,52.61,52.61-24.05,52.61-52.61,52.61-52.61-24.05-52.61-52.61Zm13.53,136.79h77.41v378.8h-77.41v-378.8Z"/><path class="cls-1" d="m494.32,441.15c0-28.56,24.05-52.61,52.61-52.61s52.61,24.05,52.61,52.61-24.05,52.61-52.61,52.61-52.61-24.05-52.61-52.61Z"/></svg>