<svg width="28" height="28" fill="none" xmlns="http://www.w3.org/2000/svg">
    <path d="M14 27.333C6.636 27.333.667 21.364.667 14S6.636.667 14 .667 27.333 6.636 27.333 14 21.363 27.333 14 27.333Zm8.473-8.064v-.14c0-1.229 0-1.79-.87-2.288a9.824 9.824 0 0 0-.86-.433c-.488-.223-.813-.368-1.25-1.008a16.141 16.141 0 0 1-.154-.23c-.46-.7-.792-1.203-2.056-1.003-2.487.394-2.671.832-2.78 1.57l-.018.122c-.161 1.08-.19 1.442.26 1.916 1.687 1.769 2.697 3.045 3.004 3.792.15.364.534 1.466.27 2.557a10.914 10.914 0 0 0 4.2-2.983 6.61 6.61 0 0 0 .254-1.872ZM14 3.111a10.86 10.86 0 0 0-7.862 3.354c.237.164.442.395.583.712.272.61.272 1.238.272 1.794 0 .437 0 .853.14 1.153.192.41 1.022.587 1.753.739.263.056.533.112.778.18.675.186 1.197.793 1.614 1.28.174.201.431.498.56.573.067-.048.282-.281.387-.664.083-.293.059-.552-.06-.693-.746-.88-.705-2.574-.474-3.199.362-.985 1.495-.912 2.325-.859.31.02.6.04.819.012.829-.104 1.085-1.366 1.265-1.613.39-.533 1.581-1.337 2.32-1.833A10.85 10.85 0 0 0 14 3.11Z" fill="#008941"/>
</svg>
