<svg xmlns="http://www.w3.org/2000/svg" width="197" height="210" fill="none">
    <path fill="#2E2E2E" d="m193.994 89.817-5.54-3.674a.689.689 0 0 0-.696-.03.664.664 0 0 0-.356.593v8.206a.654.654 0 0 0 .682.667.75.75 0 0 0 .429-.149l5.54-4.532a.72.72 0 0 0 .252-.563.694.694 0 0 0-.311-.518ZM20.073 91.061a.68.68 0 0 1-.622-.4.656.656 0 0 1 .118-.74l28.913-31.535a.68.68 0 0 1 .963-.044.68.68 0 0 1 .044.962l-27.831 30.35 27.95-.874c.355.015.68.281.696.652a.677.677 0 0 1-.652.696l-29.55.918c-.015.015-.015.015-.03.015ZM133.843 28.125a.746.746 0 0 1-.445-.163l-31.031-26.35-23.21 25.328a.68.68 0 0 1-.962.045.68.68 0 0 1-.045-.963L101.805.22a.673.673 0 0 1 .933-.06l31.534 26.78a.663.663 0 0 1 .074.948.654.654 0 0 1-.503.237Z"/>
    <path fill="#5B12EB" d="M103.893 182.109H80.861a.68.68 0 0 1-.682-.681.68.68 0 0 1 .681-.681h23.033a.68.68 0 0 1 .681.681.68.68 0 0 1-.681.681ZM109.981 192.492h-29.12a.68.68 0 0 1-.682-.681.68.68 0 0 1 .681-.681h29.121a.68.68 0 0 1 .681.681.67.67 0 0 1-.681.681Z"/>
    <path fill="#000091" d="m53.785 121.721 1.422-82.398-7.525-.844 2.192 79.154 3.91 4.088Z"/>
    <path fill="#AF8EF3" d="m176.827 107.384 2.784-67.794-115.695-1.111-1.777 91.019 35.83 33.326 14.323-9.302 11.405 7.599 53.13-53.737Z"/>
    <path fill="#AF8EF3" d="M97.968 163.491a.687.687 0 0 1-.459-.178l-35.83-33.312a.663.663 0 0 1-.222-.503l1.777-91.02c0-.37.311-.666.682-.666l115.695 1.111a.683.683 0 0 1 .681.696l-2.784 67.779a.643.643 0 0 1-.193.445l-53.13 53.767a.675.675 0 0 1-.859.089l-11.035-7.347-13.967 9.05a.747.747 0 0 1-.356.089ZM62.82 129.216l35.208 32.749 13.893-9.005a.67.67 0 0 1 .741 0l10.931 7.287 52.552-53.16 2.755-66.83L64.582 39.16l-1.762 90.056Z"/>
    <path fill="#2E2E2E" d="M53.784 122.403c-.014 0-.014 0 0 0a.683.683 0 0 1-.681-.696l1.644-95.655c0-.178.074-.356.208-.474a.837.837 0 0 1 .488-.193l136.891 2.4a.685.685 0 0 1 .667.726l-5.021 68.312a.688.688 0 0 1-.726.622.678.678 0 0 1-.622-.726l4.977-67.601-135.5-2.37-1.643 94.973c-.015.386-.311.682-.682.682Z"/>
    <path fill="#fff" d="M164.325 69.776c-.385-3.11-2.31-4.532-5.495-3.614-1.881.533-3.436 5.614-4.221 7.14.074-3.422.503-12.25-.074-15.494-.445-2.414-1.837-4.991-4.414-5.465-4.311-.785-6.547 9.228-7.732 12.545-.089-3.066-.755-12.279-1.081-15.3-.282-2.666-1.17-4.814-4.429-4.577-3.881.267-5.169 3.703-5.91 6.74-1.289 5.272-2.074 12.204-3.347 17.477-1.511-6.532-5.436-14.604-13.45-12.916-6.917 1.452-14.915 8.058-14.56 15.642-4.754-2.874-9.568.785-14.012 3.258-5.924 3.303-11.553 12.798-12.886 19.715-1.496 7.687-.548 10.546-.444 18.337l.4 28.542c.014.785 1.11.859 1.318.208 7.42 7.302 14.826 14.604 22.247 21.906.267.267.682.252.963 0 3.422-3.184 7.658-4.932 11.687-7.909 4.665-3.436 9.138 3.792 14.856 5.125.385.089 16.426-14.664 23.403-22.129 8.161-8.724 10.501-18.841 12.441-30.142l3.511-19.685c.607-3.51.681-7.065 1.288-10.576.356-2.266.223-6.517-.059-8.828Zm-51.012 10.769c-.563 9.064-1.422 21.151-10.146 25.994-6.68 3.718-14.856.756-16.13-7.11-.622-3.776-.533-7.79 2.237-10.412 4.976-4.71 11.775-5.866 11.805-13.953 0-1.525 1.673-1.97 2.651-1.348 4.31-.43 6.71-5.287 8.887-2.666 1.259 1.511.844 6.962.696 9.495Z"/>
    <path fill="#2E2E2E" d="M168.088 34.317H163.2a.68.68 0 0 1-.681-.682.67.67 0 0 1 .681-.68h4.888a.68.68 0 0 1 .681.68.68.68 0 0 1-.681.682ZM177.226 36.627h-5.021a.68.68 0 0 1-.681-.68v-4.889a.68.68 0 0 1 .681-.681h5.021a.68.68 0 0 1 .682.681v4.888a.68.68 0 0 1-.682.681Zm-4.354-1.347h3.673v-3.54h-3.673v3.54ZM185.98 36.627a.698.698 0 0 1-.489-.207l-4.769-4.888a.679.679 0 0 1 .015-.963.68.68 0 0 1 .963.015l4.769 4.888a.679.679 0 0 1-.015.963.672.672 0 0 1-.474.192Z"/>
    <path fill="#2E2E2E" d="M181.211 36.627a.665.665 0 0 1-.504-.222.681.681 0 0 1 .06-.963l5.539-4.887a.681.681 0 1 1 .904 1.022l-5.54 4.887a.755.755 0 0 1-.459.163ZM121.238 56.846c-2.681-1.689-5.821-2.089-9.08-1.14-5.836 1.702-10.605 7.05-12.738 11.597-.637 1.348-.844 2.414-.8 3.258-4.251-.874-11.613 2.074-18.189 7.51-10.664 8.798-11.064 29.52-8.265 60.121.03.356.326.622.667.622h.059c.37-.029.918.978.889.608-2.681-29.313-2.652-51.901 7.51-60.3 6.56-5.406 14.322-8.427 17.788-7.02.208.34.474.622.756.83.207.162.429.296.666.414.4.785.474 1.837.207 3.184-.696 3.481-3.821 5.748-7.139 8.147-4.488 3.244-9.568 6.932-7.761 14.264 1.436 5.791 6.295 9.657 12.101 9.598 5.229-.045 11.613-3.614 13.864-13.464 2.947-12.901 3.051-23.136.252-24.87-.43-.266-1.319-.577-2.459.341-1.807 1.482-5.643 2.4-7.865 1.793-.578-.208-1.555-.489-1.703-1.793-.06-.696.162-1.6.666-2.666 2.385-5.05 7.273-9.524 11.894-10.871 2.918-.845 5.599-.519 7.969.977 7.228 4.577 6.28 13.627 6.265 13.716-.044.37.222.71.593.755a.681.681 0 0 0 .755-.592c.03-.4 1.052-9.983-6.902-15.02Zm-19.152 16.96c2.785.414 6.517-.727 8.324-2.208.548-.444.8-.296.889-.252 1.585.978 2.414 9.11-.859 23.418-2.074 9.08-7.836 12.368-12.546 12.412h-.103c-5.11 0-9.391-3.436-10.665-8.576-1.6-6.443 2.696-9.539 7.228-12.827 3.377-2.444 6.873-4.977 7.673-8.976.252-1.214.237-2.192.059-2.992Z"/>
    <path fill="#2E2E2E" d="M120.882 106.08c-.059 0-.118-.015-.177-.029-.356-.104-.578-.474-.474-.83 4.043-14.782 5.954-28.631 7.346-38.748 1.156-8.398 1.985-14.456 3.451-17.315 1.808-3.525 4.355-5.288 6.829-4.725 2.577.593 4.325 3.51 4.443 7.45.208 7.229 0 16.309 0 16.397-.015.37-.266.652-.696.667-.37-.015-.666 1.733-.666 1.348 0-.09.207-11.183 0-18.367-.089-3.258-1.452-5.732-3.377-6.162-1.837-.414-3.822 1.096-5.318 4.03-1.363 2.665-2.222 8.93-3.318 16.885-1.392 10.146-3.303 24.054-7.376 38.925a.717.717 0 0 1-.667.474Z"/>
    <path fill="#2E2E2E" d="M154.55 75.642h.014c.208-.563.386-1.14.504-1.733.03-.134.104-.222.193-.252.044-2.8.133-9.48-.03-15.064-.104-3.94-1.852-6.858-4.444-7.45-2.473-.563-5.021 1.215-6.828 4.725-1.466 2.859-2.296 8.931-3.451 17.315-1.392 10.116-3.303 23.966-7.347 38.748-.103.355.119.726.474.829.06.015.119.03.178.03a.677.677 0 0 0 .652-.504c4.073-14.87 5.984-28.764 7.376-38.925 1.096-7.954 1.955-14.234 3.318-16.886 1.496-2.933 3.481-4.428 5.317-4.029 1.926.445 3.289 2.918 3.377 6.162.208 7.199 0 16.234 0 16.323.03.385.326.696.697.71Z"/>
    <path fill="#2E2E2E" d="M153.543 131.068a.637.637 0 0 1-.282-.06c-.341-.148-.489-.562-.341-.903 2.267-4.977 7.258-24.514 9.139-39.177.03-.148 1.985-10.976 1.793-18.115-.104-3.451-1.437-6.266-3.111-6.547-1.555-.267-3.318 1.807-4.666 5.525-1.022 2.784-1.51 6.22-2.192 10.975-1.066 7.377-2.518 17.478-6.902 33.475a.691.691 0 0 1-.83.474c-.355-.104-.577-.474-.474-.829 4.355-15.923 5.807-25.966 6.858-33.312.696-4.844 1.2-8.34 2.267-11.257 2.221-6.073 4.813-6.606 6.161-6.399 2.385.385 4.133 3.614 4.251 7.85.208 7.288-1.718 17.908-1.807 18.367-1.896 14.738-6.947 34.482-9.257 39.533a.66.66 0 0 1-.607.4ZM113.965 148.309h-.089a.681.681 0 0 1-.592-.756c.015-.163 1.94-17.063-14.279-30.571a.678.678 0 0 1-.089-.948.678.678 0 0 1 .948-.089c16.812 14.012 14.783 31.608 14.753 31.786-.015.326-.311.578-.652.578Z"/>
    <path fill="#000091" d="M87.14 60.4c-2.295-2.044-4.576-4.102-6.872-6.146-.652-.578-1.614.37-.963.962 2.296 2.044 4.577 4.103 6.873 6.147.652.578 1.615-.37.963-.963ZM96.073 58.49c-1.585-4.207-3.17-8.428-4.77-12.635-.31-.814-1.614-.459-1.303.356 1.585 4.206 3.17 8.428 4.77 12.634.295.815 1.599.46 1.303-.355Z"/>
    <path fill="#2E2E2E" d="M195.993 210H26.22a.691.691 0 0 1-.681-.637L19.392 90.424a.67.67 0 0 1 .385-.652.652.652 0 0 1 .74.119l77.896 72.43a.678.678 0 0 1 .03.962.666.666 0 0 1-.963.03L20.843 92.009l6.029 116.628h168.44l-2.326-116.658-68.327 69.127a.678.678 0 0 1-.962 0 .679.679 0 0 1 0-.963l69.452-70.267a.668.668 0 0 1 .726-.148.7.7 0 0 1 .43.622l2.37 118.939c0 .178-.06.355-.193.489a.632.632 0 0 1-.489.222Z"/>
    <path fill="#2E2E2E" d="M26.22 210a.64.64 0 0 1-.563-.311.669.669 0 0 1 .192-.933l86.072-55.796a.668.668 0 0 1 .74 0l83.702 55.796c.311.207.4.622.193.933a.672.672 0 0 1-.933.193l-83.332-55.56-85.701 55.56a.586.586 0 0 1-.37.118Z"/>
    <path fill="#D7C6F9" d="M72.536 154.559H37.862l2.37 44.999h32.304v-44.999Z"/>
    <path fill="#2E2E2E" d="M69.219 203.083h-32.32a.692.692 0 0 1-.681-.637l-2.37-44.998a.637.637 0 0 1 .193-.504.698.698 0 0 1 .488-.207h34.675a.68.68 0 0 1 .681.681v44.998c.015.356-.296.667-.666.667ZM37.55 201.72h31.001v-43.65H35.255l2.296 43.65Z"/>
    <path fill="#2E2E2E" d="M64.701 178.866H39.047a.68.68 0 0 1-.681-.682.67.67 0 0 1 .681-.681h25.654a.68.68 0 0 1 .681.681.68.68 0 0 1-.68.682Z"/>
    <path fill="#2E2E2E" d="M52.6 191.93a.684.684 0 0 1-.682-.652l-.726-25.891a.676.676 0 0 1 .652-.696c.37 0 .681.281.696.651l.726 25.891a.677.677 0 0 1-.652.697H52.6ZM50.037 191.944a.686.686 0 0 1-.43-.148c-3.998-3.229-5.998-8.65-5.494-14.871.444-5.451 2.74-10.398 5.584-12.012a.661.661 0 0 1 .918.252.662.662 0 0 1-.252.918c-2.444 1.392-4.503 5.999-4.902 10.946-.474 5.776 1.347 10.768 4.991 13.701.296.237.34.666.104.948a.647.647 0 0 1-.519.266ZM55.133 191.693a.65.65 0 0 1-.37-.119.671.671 0 0 1-.193-.933c6.31-9.42 4.443-20.529-1.185-24.603a.68.68 0 0 1-.148-.947.682.682 0 0 1 .948-.149c6.117 4.429 8.25 16.382 1.51 26.44a.657.657 0 0 1-.563.311Z"/>
    <path fill="#2E2E2E" d="M51.874 191.944c-7.45 0-13.508-6.176-13.508-13.76 0-7.45 6.058-13.508 13.508-13.508 7.45 0 13.508 6.058 13.508 13.508 0 9.124-4.547 13.76-13.508 13.76Zm0-25.92c-6.695 0-12.146 5.45-12.146 12.145 0 6.725 5.57 12.398 12.146 12.398 8.176 0 12.146-4.059 12.146-12.398 0-6.68-5.45-12.145-12.146-12.145Z"/>
    <path fill="#000091" d="M174.708 149.849v6.28l6.503-3.14-6.503-3.14Z"/>
    <path fill="#5B12EB" d="M178.189 137.333c-.281 2.252-.563 4.503-.859 6.754-.104.859 1.244.859 1.348 0 .281-2.251.563-4.502.859-6.754.118-.874-1.244-.859-1.348 0Z"/>
    <path fill="#D7C6F9" d="M9.971 93.446c-2.933-2.489-5.85-4.977-8.783-7.466-.667-.562-1.63.386-.963.963 2.933 2.489 5.85 4.977 8.783 7.465.667.548 1.63-.4.963-.962Z"/>
</svg>
