<svg fill="none" height="64" width="140" xmlns="http://www.w3.org/2000/svg" xmlns:xlink="http://www.w3.org/1999/xlink"><clipPath id="a"><path d="m0 0h140v64h-140z"/></clipPath><g clip-path="url(#a)"><path d="m.3 5.1h15.4c8.4 0 13.1 3.9 13.1 10.8 0 7-4.7 10.8-13.1 10.8h-15.4zm14.3 16.3c4.2 0 6.6-2 6.6-5.5s-2.4-5.5-6.6-5.5h-6.6v11zm90.9-16.3h9.2l10.6 21.7h-8.2l-1.7-3.8h-10.8l-1.7 3.8h-8.2zm8.4 13.4-3.9-8.6-3.9 8.6zm-31.1 5.2-1.4-2.3c-.9-1.3-2.2-1.9-3.7-1.9h-4.6v7.2h-7.9v-21.7h18.3c5.8 0 9.2 2.5 9.2 6.9 0 3.2-2.3 5.5-6.3 6.3.7.3 1.4.8 1.9 1.6l1.5 2.3c.4.5.9.9 1.8.9.5 0 1.2-.3 1.6-.7l1.3 3.2c-1.2 1-3.6 1.8-5.6 1.8-3.2.1-4.9-1.8-6.1-3.6zm-1.7-8.6c2.3 0 3.6-1 3.6-2.7s-1.3-2.7-3.6-2.7h-8v5.4z" fill="#5b12eb"/><path d="m46.8 0c-8.8 0-15.9 7.1-15.9 15.9 0 13.1 15.9 20.1 15.9 20.1s15.9-7 15.9-20.1c0-8.8-7.1-15.9-15.9-15.9zm3.9 19.8c-2.1 2.1-5.6 2.1-7.7 0s-2.1-5.6 0-7.7 5.6-2.1 7.7 0 2.1 5.5 0 7.7z" fill="#9c6ff4"/><path d="m0 39.6h3.1c2.5 0 4.2 1.8 4.2 4 0 2.1-1.7 4-4.2 4h-3.1zm1.1 1v6h2c1.8 0 3.1-1.3 3.1-3s-1.3-3-3.1-3zm10.4 7.2c-1.9 0-3.1-1.4-3.1-3.1s1.1-3.1 2.9-3.1c1.6 0 2.6 1.1 2.6 2.5 0 .2 0 .4-.1.6h-4.4c0 1.4.9 2.2 2.1 2.2.7 0 1.4-.3 1.7-.9l.7.6c-.4.7-1.3 1.2-2.4 1.2zm-2-3.8h3.4c0-.8-.6-1.5-1.6-1.5-1-.1-1.6.5-1.8 1.5zm1.4-3.1 1.1-1.9h1.1l-1.3 1.9zm8.8 5.1.8.6c-.5.7-1.4 1.2-2.4 1.2-1.9 0-3.1-1.4-3.1-3.1s1.2-3.1 3.1-3.1c1 0 1.9.5 2.4 1.2l-.8.6c-.4-.5-.9-.8-1.6-.8-1.2 0-2.1 1-2.1 2.2s.9 2.2 2.1 2.2c.7-.1 1.3-.5 1.6-1zm7.6-1.3c0 1.7-1.3 3.1-3.1 3.1-1.9 0-3.1-1.4-3.1-3.1s1.2-3.1 3.1-3.1c1.8 0 3.1 1.4 3.1 3.1zm-1 0c0-1.2-.9-2.2-2.1-2.2s-2.1 1-2.1 2.2.9 2.2 2.1 2.2 2.1-1 2.1-2.2zm6.5-2.9h1v3.2c0 1.7-1 2.7-2.5 2.7s-2.5-1-2.5-2.7v-3.2h1v3.3c0 1.1.6 1.8 1.6 1.8s1.6-.6 1.6-1.8v-3.3zm3.1 0 1.8 4.7 1.8-4.7h1l-2.2 5.7h-1.3l-2.2-5.7zm5.9 0h1v.7c.4-.5.9-.8 1.7-.8.2 0 .4 0 .5.1v.9c-.2 0-.3-.1-.6-.1-.7 0-1.2.4-1.6 1v3.9h-1zm4.3-2.1c0-.4.3-.7.7-.7s.7.3.7.7-.3.7-.7.7c-.4-.1-.7-.4-.7-.7zm.2 2.1h1v5.7h-1zm3 0h1v.7c.4-.5.9-.8 1.7-.8.2 0 .4 0 .5.1v.9c-.2 0-.3-.1-.6-.1-.7 0-1.2.4-1.6 1v3.9h-1zm2.9 7.6 1-3h1.1l-1.2 3zm14.5-5.8c0 2.3-1.7 4.2-4.2 4.2s-4.2-1.9-4.2-4.2 1.7-4.2 4.2-4.2 4.2 1.9 4.2 4.2zm-1.1 0c0-1.8-1.3-3.2-3.1-3.2s-3.1 1.4-3.1 3.2 1.3 3.2 3.1 3.2 3.1-1.5 3.1-3.2zm2.7-1.8h1v.7c.4-.5.9-.8 1.7-.8.2 0 .4 0 .5.1v.9c-.2 0-.3-.1-.6-.1-.7 0-1.2.4-1.6 1v3.9h-1zm4.3-2.1c0-.4.3-.7.7-.7s.7.3.7.7-.3.7-.7.7c-.4-.1-.7-.4-.7-.7zm.2 2.1h1v5.7h-1zm5.7 6c-1.9 0-3.1-1.4-3.1-3.1s1.1-3.1 2.9-3.1c1.6 0 2.6 1.1 2.6 2.5 0 .2 0 .4-.1.6h-4.4c0 1.4.9 2.2 2.1 2.2.7 0 1.4-.3 1.7-.9l.7.6c-.5.7-1.4 1.2-2.4 1.2zm-2.1-3.8h3.4c0-.8-.6-1.5-1.6-1.5-.9-.1-1.6.5-1.8 1.5zm6-2.2h1v.6c.5-.5 1.1-.9 1.9-.9 1.3 0 2.2.9 2.2 2.5v3.5h-1v-3.4c0-1-.6-1.6-1.5-1.6-.8 0-1.3.5-1.7 1.1v4h-1v-5.8zm7.4.9h-1.1v-.9h1.1v-1.4h1v1.4h2v.9h-2v2.9c0 .9.5 1.1 1.1 1.1.4 0 .6 0 .8-.1v.9c-.3.1-.6.2-1 .2-1.3 0-2-.6-2-2v-3zm7 5.1c-1.9 0-3.1-1.4-3.1-3.1s1.1-3.1 2.9-3.1c1.6 0 2.6 1.1 2.6 2.5 0 .2 0 .4-.1.6h-4.4c0 1.4.9 2.2 2.1 2.2.7 0 1.4-.3 1.7-.9l.7.6c-.5.7-1.4 1.2-2.4 1.2zm-2.1-3.8h3.4c0-.8-.6-1.5-1.6-1.5-.9-.1-1.6.5-1.8 1.5zm6-2.2h1v.7c.4-.5.9-.8 1.7-.8.2 0 .4 0 .5.1v.9c-.2 0-.3-.1-.6-.1-.7 0-1.2.4-1.6 1v3.9h-1zm2.9 7.6 1-3h1.1l-1.2 3zm-103.6 3.8h2.1c1.6 0 2.6.9 2.6 2.2 0 1-.5 1.7-1.3 2l2.6 3.7h-1.3l-2.3-3.5h-1.3v3.5h-1.1zm1.1.9v2.6h1.1c.9 0 1.4-.5 1.4-1.3s-.5-1.3-1.4-1.3zm8.5 7.3c-1.9 0-3.1-1.4-3.1-3.1s1.1-3.1 2.9-3.1c1.6 0 2.6 1.1 2.6 2.5 0 .2 0 .4-.1.6h-4.4c0 1.4.9 2.2 2.1 2.2.7 0 1.4-.3 1.7-.9l.7.6c-.5.7-1.3 1.2-2.4 1.2zm-2.1-3.8h3.5c0-.8-.6-1.5-1.6-1.5-1-.1-1.7.5-1.9 1.5zm6.1-2.2h1v.6c.5-.5 1.1-.9 1.9-.9 1.3 0 2.2.9 2.2 2.5v3.5h-1v-3.4c0-1-.6-1.6-1.5-1.6-.8 0-1.3.5-1.7 1.1v4h-1v-5.8zm7.1 4.4c.4.5.9.8 1.5.8s1-.4 1-.9c0-1.3-2.9-.8-2.9-2.8 0-.9.8-1.6 1.9-1.6.8 0 1.5.4 1.9.9l-.7.6c-.3-.4-.7-.7-1.2-.7-.6 0-.9.4-.9.8 0 1.3 2.9.9 2.9 2.8 0 1.1-.9 1.7-1.9 1.7-.9 0-1.6-.4-2.1-1zm7.5 1.6c-1.9 0-3.1-1.4-3.1-3.1s1.1-3.1 2.9-3.1c1.6 0 2.6 1.1 2.6 2.5 0 .2 0 .4-.1.6h-4.4c0 1.4.9 2.2 2.1 2.2.7 0 1.4-.3 1.7-.9l.7.6c-.5.7-1.3 1.2-2.4 1.2zm-2.1-3.8h3.4c0-.8-.6-1.5-1.6-1.5-.9-.1-1.6.5-1.8 1.5zm5.9-4.3c0-.4.3-.7.7-.7s.7.3.7.7-.3.7-.7.7-.7-.4-.7-.7zm.1 2.1h1v5.7h-1zm3.2 5.4c-.3-.2-.4-.5-.4-.8 0-.5.2-.8.7-1.1-.5-.4-.8-1-.8-1.6 0-1.1.9-2 2.2-2 .4 0 .8.1 1.1.2h2.1v.8h-1.2c.2.3.2.6.2 1 0 1.1-.9 2-2.2 2-.3 0-.6 0-.8-.1-.2.2-.4.4-.4.6s.1.4.5.4h1.7c1.5 0 2.2.7 2.2 1.8 0 1.2-1.2 2.1-2.9 2.1s-2.8-.7-2.8-1.8c0-.7.3-1.1.8-1.5zm2 2.4c1.2 0 2-.5 2-1.2 0-.5-.3-1-1.3-1h-1.9c-.4.3-.6.6-.6 1.1-.1.7.7 1.1 1.8 1.1zm1.1-6c0-.7-.5-1.3-1.3-1.3-.9 0-1.3.6-1.3 1.3s.5 1.3 1.3 1.3 1.3-.6 1.3-1.3zm3.1-1.8h1v.6c.5-.5 1.1-.9 1.9-.9 1.3 0 2.2.9 2.2 2.5v3.5h-1v-3.4c0-1-.6-1.6-1.5-1.6-.8 0-1.3.5-1.7 1.1v4h-1v-5.8zm9.6 6c-1.9 0-3.1-1.4-3.1-3.1s1.1-3.1 2.9-3.1c1.6 0 2.6 1.1 2.6 2.5 0 .2 0 .4-.1.6h-4.4c0 1.4.9 2.2 2.1 2.2.7 0 1.4-.3 1.7-.9l.7.6c-.4.7-1.3 1.2-2.4 1.2zm-2-3.8h3.4c0-.8-.6-1.5-1.6-1.5-1-.1-1.6.5-1.8 1.5zm6-2.2h1v.7c.4-.5.9-.8 1.7-.8.2 0 .4 0 .5.1v.9c-.2 0-.3-.1-.6-.1-.7 0-1.2.4-1.6 1v3.9h-1zm2.9 7.6 1-3h1l-1.2 3zm9.1-9.8h1.4l3.2 7.9h-1.1l-.9-2.3h-3.7l-1 2.4h-1.1zm2.1 4.7-1.5-3.8-1.5 3.8zm8 1.7.8.6c-.5.7-1.4 1.2-2.4 1.2-1.9 0-3.1-1.4-3.1-3.1s1.2-3.1 3.1-3.1c1 0 1.9.5 2.4 1.2l-.8.6c-.4-.5-.9-.8-1.6-.8-1.2 0-2.1 1-2.1 2.2s.9 2.2 2.1 2.2c.7-.1 1.3-.5 1.6-1zm6.1 0 .8.6c-.5.7-1.4 1.2-2.4 1.2-1.9 0-3.1-1.4-3.1-3.1s1.2-3.1 3.1-3.1c1 0 1.9.5 2.4 1.2l-.8.6c-.4-.5-.9-.8-1.6-.8-1.2 0-2.1 1-2.1 2.2s.9 2.2 2.1 2.2c.7-.1 1.3-.5 1.6-1zm7.6-1.3c0 1.7-1.3 3.1-3.1 3.1-1.9 0-3.1-1.4-3.1-3.1s1.2-3.1 3.1-3.1c1.8 0 3.1 1.4 3.1 3.1zm-1 0c0-1.2-.9-2.2-2.1-2.2s-2.1 1-2.1 2.2.9 2.2 2.1 2.2 2.1-1 2.1-2.2zm2.6-2.9h1v.6c.4-.5 1-.9 1.8-.9s1.5.4 1.9 1.1c.5-.6 1.1-1.1 2-1.1 1.2 0 2.1.8 2.1 2.4v3.6h-1v-3.5c0-1-.5-1.5-1.4-1.5-.7 0-1.2.4-1.6 1.1v4h-1v-3.5c0-1-.5-1.5-1.4-1.5-.8 0-1.3.5-1.6 1.1v4h-1v-5.9zm10.7 0h1v.7c.5-.6 1.2-.9 2-.9 1.8 0 2.9 1.4 2.9 3.1s-1.1 3.1-2.9 3.1c-.9 0-1.5-.3-2-.9v3.5h-1zm.9 1.8v2.2c.4.7 1.1 1.1 1.9 1.1 1.2 0 2-1 2-2.2s-.8-2.2-2-2.2c-.7 0-1.4.4-1.9 1.1zm6.1 2.5c0-.9.7-1.5 1.9-1.7l1.9-.3v-.4c0-.8-.6-1.2-1.4-1.2-.7 0-1.2.3-1.5.8l-.7-.6c.5-.7 1.3-1.1 2.3-1.1 1.5 0 2.3.9 2.3 2.1v3.8h-1v-.7c-.4.6-1.2.9-1.9.9-1.1 0-1.9-.6-1.9-1.6zm2.1.8c.8 0 1.4-.4 1.8-1v-1.1l-1.7.3c-.8.1-1.1.5-1.1 1-.1.5.3.8 1 .8zm4.8.3c-.3-.2-.4-.5-.4-.8 0-.5.2-.8.7-1.1-.5-.4-.8-1-.8-1.6 0-1.1.9-2 2.2-2 .4 0 .8.1 1.1.2h2.1v.8h-1.2c.2.3.2.6.2 1 0 1.1-.9 2-2.2 2-.3 0-.6 0-.8-.1-.2.2-.4.4-.4.6s.1.4.5.4h1.6c1.5 0 2.2.7 2.2 1.8 0 1.2-1.2 2.1-2.9 2.1s-2.8-.7-2.8-1.8c.1-.7.4-1.1.9-1.5zm2 2.4c1.2 0 2-.5 2-1.2 0-.5-.3-1-1.3-1h-1.9c-.4.3-.6.6-.6 1.1-.1.7.6 1.1 1.8 1.1zm1.1-6c0-.7-.5-1.3-1.3-1.3-.9 0-1.3.6-1.3 1.3s.5 1.3 1.3 1.3 1.3-.6 1.3-1.3zm3-1.8h1v.6c.5-.5 1.1-.9 1.9-.9 1.3 0 2.2.9 2.2 2.5v3.5h-1v-3.4c0-1-.6-1.6-1.5-1.6-.8 0-1.3.5-1.7 1.1v4h-1v-5.8zm9.7 6c-1.9 0-3.1-1.4-3.1-3.1s1.1-3.1 2.9-3.1c1.6 0 2.6 1.1 2.6 2.5 0 .2 0 .4-.1.6h-4.4c0 1.4.9 2.2 2.1 2.2.7 0 1.4-.3 1.7-.9l.7.6c-.5.7-1.3 1.2-2.4 1.2zm-2-3.8h3.4c0-.8-.6-1.5-1.6-1.5-1-.1-1.6.5-1.8 1.5zm6-2.2h1v.7c.4-.5.9-.8 1.7-.8.2 0 .4 0 .5.1v.9c-.2 0-.3-.1-.6-.1-.7 0-1.2.4-1.6 1v3.9h-1z" fill="#555"/></g></svg>