<svg width="310" height="231" viewBox="0 0 310 231" fill="none" xmlns="http://www.w3.org/2000/svg">
<path d="M309.355 215.436H160.728V145.257L309.355 132.476V215.436Z" fill="#E0E0E0"/>
<path d="M50.4054 49.6714L1.54736 75.2139L39.0187 159.316L77.6327 146.09L50.4054 49.6714Z" fill="#CCCCCC"/>
<path d="M207.863 21.8245L211.155 30.2676L216.48 28.486L214.156 21.8245H207.863Z" fill="#E0E0E0"/>
<path d="M227.344 11.3673C225.775 9.95365 224.207 8.54 222.638 7.12635C221.786 6.35175 220.508 7.61048 221.38 8.38508L226.085 12.626C226.937 13.4006 228.196 12.1419 227.344 11.3673Z" fill="#E0E0E0"/>
<path d="M76.9937 49.7101C75.2509 52.5181 73.508 55.3453 71.7652 58.1533C71.1649 59.1409 72.7141 60.0317 73.3144 59.0634C75.0572 56.2555 76.8001 53.4282 78.543 50.6203C79.1433 49.6327 77.5941 48.7225 76.9937 49.7101Z" fill="#CCCCCC"/>
<path d="M82.0481 59.2957C80.6344 59.9154 79.2208 60.5544 77.8071 61.1741C76.7614 61.6389 77.6716 63.1881 78.7173 62.7233C80.1309 62.1036 81.5446 61.4646 82.9582 60.8449C84.0039 60.3801 83.0938 58.8309 82.0481 59.2957Z" fill="#CCCCCC"/>
<path d="M202.963 193.36C200.485 189.197 198.025 185.033 195.547 180.87C194.966 179.882 193.416 180.773 193.997 181.78C196.476 185.943 198.935 190.107 201.414 194.27C201.995 195.258 203.544 194.348 202.963 193.36Z" fill="white"/>
<path d="M300.292 114.099C299.208 115.183 298.104 116.287 297.019 117.372C296.206 118.185 297.465 119.444 298.278 118.63L301.551 115.358C302.383 114.544 301.105 113.266 300.292 114.099Z" fill="#777777"/>
<path d="M51.7998 167.915L28.155 64.4083C28.0969 64.1179 27.8645 63.8661 27.5934 63.7693C27.303 63.6725 26.9931 63.7112 26.7414 63.9048L1.00523 83.541C0.714749 83.754 0.579192 84.1413 0.676017 84.4899L11.7141 124.885C11.8303 125.311 12.2563 125.602 12.7017 125.544C13.1471 125.486 13.4763 125.098 13.4763 124.653C13.4763 123.472 14.2703 122.949 15.0449 122.949C15.7808 122.949 16.536 123.394 17.1169 124.188C17.6592 124.943 18.3176 126.415 18.3176 129.01C18.3176 129.475 18.6662 129.862 19.1309 129.901C19.5763 129.94 20.0023 129.61 20.0798 129.165C20.3896 127.325 21.1836 126.338 21.7839 126.338C22.3261 126.338 23.4687 127.325 23.9915 130.966C24.6887 135.769 24.4369 141.752 24.1852 148.085C23.9915 152.694 23.8173 157.457 23.9915 161.931C24.0109 162.337 24.282 162.667 24.6693 162.763L50.7153 168.999C50.7928 169.018 50.8509 169.018 50.9283 169.018C51.1607 169.018 51.3931 168.922 51.548 168.767C51.7804 168.534 51.8579 168.224 51.7998 167.915Z" fill="#2E2E2E"/>
<path d="M47.6362 162.783C47.2682 162.783 46.9197 162.55 46.7841 162.183C46.6292 161.718 46.8809 161.214 47.3457 161.04L85.1463 148.085L58.4419 53.5446L26.6445 70.1598C26.1991 70.3922 25.6762 70.2179 25.4438 69.7725C25.2114 69.3271 25.3857 68.7849 25.8311 68.5719L58.5968 51.4531C58.8292 51.3369 59.1197 51.3176 59.3714 51.4338C59.6231 51.55 59.7974 51.7436 59.8749 52.0147L87.1022 148.414C87.2377 148.879 86.986 149.343 86.5406 149.498L47.9267 162.744C47.8298 162.763 47.733 162.783 47.6362 162.783Z" fill="#2E2E2E"/>
<path d="M24.8825 70.2565C24.6114 70.2565 24.3403 70.1403 24.166 69.9079C23.8755 69.5206 23.953 68.959 24.3403 68.6492L50.3863 48.9549C50.6186 48.7806 50.9285 48.7225 51.1996 48.8194C51.4707 48.9162 51.7031 49.1292 51.7805 49.4003L53.2717 54.2803C53.4072 54.745 53.1555 55.2485 52.6713 55.4035C52.2066 55.539 51.7031 55.2873 51.5482 54.8031L50.425 51.1432L25.4053 70.0628C25.2698 70.1984 25.0761 70.2565 24.8825 70.2565Z" fill="#2E2E2E"/>
<path d="M39.8518 95.0438C39.8131 95.0438 39.755 95.0438 39.7162 95.0244C39.2321 94.9469 38.8835 94.5015 38.961 93.9981L41.6527 76.1435C41.7302 75.6593 42.1756 75.3108 42.6791 75.3882C43.1632 75.4657 43.5118 75.9111 43.4343 76.4146L40.7426 94.2692C40.6651 94.7146 40.2778 95.0438 39.8518 95.0438Z" fill="#2E2E2E"/>
<path d="M47.636 114.022C47.2681 114.022 46.9195 113.789 46.784 113.421C46.6097 112.956 46.8614 112.453 47.3262 112.279L64.3868 106.217C64.8516 106.043 65.3551 106.295 65.5293 106.76C65.7036 107.224 65.4519 107.728 64.9871 107.902L47.9265 113.963C47.8297 114.002 47.7329 114.022 47.636 114.022Z" fill="#2E2E2E"/>
<path d="M56.1569 139.428C55.789 139.428 55.4598 139.215 55.3242 138.848C55.1499 138.383 55.3823 137.86 55.8277 137.686L64.3483 134.394C64.8131 134.219 65.3359 134.452 65.5102 134.916C65.6845 135.381 65.4521 135.904 65.0067 136.078L56.4861 139.37C56.3893 139.409 56.2731 139.428 56.1569 139.428Z" fill="#2E2E2E"/>
<path d="M67.9112 143.224C67.7756 143.224 67.6207 143.185 67.4851 143.127C67.0397 142.895 66.8848 142.353 67.1172 141.907L72.8492 131.14L62.5083 129.029C62.0242 128.933 61.7143 128.448 61.8112 127.964C61.908 127.48 62.3728 127.17 62.8569 127.267L74.3791 129.61C74.6502 129.668 74.8826 129.843 75.0181 130.114C75.1343 130.366 75.1343 130.675 74.9988 130.908L68.7051 142.74C68.5308 143.05 68.221 143.224 67.9112 143.224Z" fill="#2E2E2E"/>
<path d="M144.771 52.6729C144.19 53.8929 143.086 55.4227 141.537 55.0548C140.414 54.7836 139.891 56.5071 141.014 56.7589C143.396 57.3205 145.313 55.6744 146.282 53.6218C146.766 52.6148 145.255 51.6465 144.771 52.6729Z" fill="#2E2E2E"/>
<path d="M130.867 50.5621C128.427 50.5621 126.316 49.8069 125.232 48.5288C124.554 47.7348 124.283 46.7472 124.457 45.7015C124.98 42.5837 130.286 41.9253 130.886 41.8478C131.371 41.7897 131.816 42.1577 131.874 42.6418C131.932 43.1259 131.564 43.5713 131.08 43.6294C129.589 43.7843 126.452 44.5783 126.219 45.992C126.123 46.5148 126.258 46.9796 126.587 47.3669C127.304 48.2189 128.989 48.7612 130.848 48.7612C131.351 48.7612 131.738 49.1678 131.738 49.652C131.758 50.1748 131.371 50.5621 130.867 50.5621Z" fill="#2E2E2E"/>
<path d="M140.221 32.785L140.492 34.5472C140.84 36.8323 137.316 37.3745 136.948 35.0894L136.677 33.3272C136.328 31.0615 139.872 30.4999 140.221 32.785Z" fill="#2E2E2E"/>
<path d="M134.411 22.5215C135.457 22.8313 136.464 23.3155 137.548 23.5479C138.671 23.7802 138.517 25.5618 137.393 25.3294C136.154 25.0777 135.011 24.5548 133.811 24.2063C132.707 23.8964 133.307 22.2117 134.411 22.5215Z" fill="#2E2E2E"/>
<path d="M154.977 89.9505C154.628 89.9505 154.299 89.7375 154.144 89.4083C153.951 88.9436 154.164 88.4207 154.628 88.2464C158.191 86.7553 159.47 82.4175 159.896 80.2874C156.236 80.9652 145.682 82.4756 139.059 78.6414C131.603 74.3423 130.112 65.1439 129.977 49.71C129.977 49.2258 130.364 48.8192 130.867 48.7998C131.41 48.8192 131.758 49.1871 131.778 49.6906C131.913 66.7319 133.985 73.6452 139.969 77.0922C147.308 81.3331 160.67 78.3121 160.786 78.2928C161.057 78.2347 161.348 78.3121 161.58 78.4864C161.793 78.6801 161.91 78.9512 161.89 79.2417C161.871 79.5709 161.135 87.5105 155.345 89.9118C155.209 89.9312 155.093 89.9505 154.977 89.9505Z" fill="#2E2E2E"/>
<path d="M151.2 80.2295L154.976 89.06C158.791 87.414 160.534 83.0181 160.98 79.1257C157.765 79.8229 154.492 80.1908 151.2 80.2295Z" fill="#2E2E2E"/>
<path d="M131.003 43.6488C130.499 43.6488 130.112 43.2421 130.112 42.758C130.131 38.6138 130.209 34.7408 130.305 30.3837C130.364 27.6145 130.422 24.6323 130.48 21.2821C130.712 7.165 139.756 0.0192871 157.397 0.0192871C178.331 0.0192871 191.344 9.85674 191.344 25.6973C191.344 26.2008 190.937 26.5881 190.453 26.5881C189.95 26.5881 189.563 26.1815 189.563 25.6973C189.563 10.9605 177.246 1.80087 157.417 1.80087C140.724 1.80087 132.494 8.17197 132.3 21.3015C132.242 24.671 132.184 27.6339 132.126 30.4224C132.029 34.7796 131.952 38.6332 131.932 42.7773C131.893 43.2421 131.506 43.6488 131.003 43.6488Z" fill="#2E2E2E"/>
<path d="M190.628 31.5651C189.911 31.1971 189.233 30.7517 188.575 30.2482C177.672 27.053 165.782 23.4898 153.737 19.4038C153.892 20.0622 154.047 20.74 154.221 21.4565C155.867 28.1955 159.005 36.8324 170.004 35.2832C174.477 34.6054 179.319 35.0508 182.785 37.5876C184.063 42.5838 180.287 47.2508 174.69 46.205C174.051 46.0889 173.141 46.4374 173.335 47.1346C174.477 51.1044 181.797 69.3463 187.219 60.5158C190.376 55.3647 190.725 41.2089 190.628 32.6108C190.628 32.2622 190.628 31.9136 190.628 31.5651Z" fill="#2E2E2E"/>
<path d="M174.923 47.7542C174.671 47.7542 174.419 47.7542 174.148 47.7348C173.664 47.7155 173.277 47.2895 173.296 46.8053C173.315 46.3212 173.722 45.9339 174.226 45.9533C177.343 46.0888 179.745 45.3917 181.216 43.9587C182.553 42.6612 182.766 41.1895 182.766 40.4149C182.766 39.1561 182.301 38.0717 181.391 37.2003C179.512 35.3993 175.717 34.6053 170.43 34.8765C169.965 34.9152 169.52 34.5279 169.481 34.0244C169.462 33.5403 169.83 33.1142 170.333 33.0949C176.201 32.785 180.345 33.7339 182.63 35.9028C184.218 37.4133 184.567 39.1949 184.567 40.4149C184.567 42.2352 183.831 43.9587 182.475 45.2561C181.255 46.418 178.97 47.7542 174.923 47.7542Z" fill="#2E2E2E"/>
<path d="M170.372 99.4589C170.217 99.4589 170.043 99.4202 169.907 99.3233L154.512 89.8345C154.357 89.7376 154.221 89.5827 154.144 89.4084L150.6 80.578C150.426 80.1132 150.639 79.5904 151.104 79.4161C151.568 79.2418 152.091 79.4548 152.265 79.9196L155.693 88.4789L170.236 97.4449L187.645 79.997L182.417 62.0069C182.281 61.5228 182.92 62.1812 183.404 62.0456C183.889 61.9101 184.373 62.1812 184.508 62.6653L189.504 80.0164C189.601 80.3262 189.504 80.6748 189.272 80.8878L170.991 99.2071C170.837 99.3621 170.604 99.4589 170.372 99.4589Z" fill="#2E2E2E"/>
<path d="M138.807 43.0873C137.626 43.0873 136.444 42.7968 135.36 42.2159C132.533 40.7054 130.925 37.6264 130.925 33.734C130.925 33.2305 131.332 32.8432 131.816 32.8432C132.3 32.8432 132.707 33.2499 132.707 33.734C132.707 36.9292 133.985 39.4467 136.193 40.6279C137.974 41.5768 140.104 41.48 141.731 40.3956C143.803 39.0013 144.733 36.3483 144.384 32.9207C144.326 32.4365 144.694 31.9911 145.178 31.933C145.643 31.875 146.107 32.2429 146.166 32.727C146.572 36.7937 145.333 40.1245 142.719 41.8673C141.557 42.6806 140.182 43.0873 138.807 43.0873Z" fill="#2E2E2E"/>
<path d="M145.294 36.4062C144.829 36.4062 144.442 36.0577 144.403 35.5929C144.364 35.1088 144.732 34.6634 145.217 34.6246L176.104 31.9523C176.607 31.9135 177.033 32.2815 177.072 32.7656C177.111 33.2497 176.743 33.6951 176.259 33.7338L145.371 36.4062C145.333 36.4062 145.313 36.4062 145.294 36.4062Z" fill="#2E2E2E"/>
<path d="M157.397 0C143.9 0 135.379 4.18285 132.087 12.4517C132.01 12.6647 132.01 12.9165 132.106 13.1295C132.203 13.3425 132.378 13.5168 132.591 13.6136C139.736 16.4409 146.998 19.0552 154.221 21.4758C166.712 25.6974 179.028 29.3574 190.202 32.6108C190.279 32.6301 190.376 32.6495 190.453 32.6495C190.512 32.6495 190.589 32.6495 190.647 32.6301C190.763 32.6107 190.879 32.5527 190.976 32.4752C191.209 32.3009 191.325 32.0298 191.325 31.7587V25.6974C191.344 9.83745 178.331 0 157.397 0ZM189.543 30.5387C178.389 27.266 166.131 23.606 153.737 19.4038C147.192 17.1768 140.608 14.8143 134.101 12.2581C134.856 10.6314 135.844 9.1984 137.064 7.93967C141.131 3.79555 147.85 1.76222 157.397 1.76222C177.227 1.76222 189.543 10.9219 189.543 25.6587V30.5387Z" fill="#2E2E2E"/>
<path d="M132.92 13.6717C132.823 13.6717 132.726 13.6523 132.629 13.633L109.701 5.90632C109.236 5.7514 108.985 5.24791 109.139 4.76378C109.294 4.29902 109.798 4.04728 110.282 4.2022L133.21 11.9289C133.675 12.0838 133.927 12.5873 133.772 13.0714C133.656 13.42 133.307 13.6717 132.92 13.6717Z" fill="#2E2E2E"/>
<path d="M221.999 89.9507C221.786 89.9507 221.573 89.8733 221.398 89.7183L220.062 88.479C214.95 83.7733 208.559 77.8863 203.428 75.9304C198.199 73.9358 192.467 73.0257 186.444 73.2387C185.96 73.2387 185.534 72.8707 185.515 72.3672C185.495 71.8638 185.883 71.4571 186.386 71.4377C192.68 71.2247 198.625 72.1542 204.086 74.2457C209.547 76.3371 216.073 82.3209 221.301 87.1428L222.638 88.3628C223.006 88.692 223.025 89.2536 222.696 89.6215C222.483 89.8539 222.231 89.9507 221.999 89.9507Z" fill="#2E2E2E"/>
<path d="M136.657 103.119C136.541 103.119 136.405 103.1 136.289 103.041C135.843 102.828 135.63 102.306 135.843 101.86C138.903 95.0631 143.725 89.757 152.439 83.5215C152.846 83.231 153.408 83.3278 153.679 83.7345C153.969 84.1412 153.872 84.7028 153.466 84.9932C145.022 91.0351 140.375 96.1281 137.451 102.615C137.315 102.925 137.005 103.119 136.657 103.119Z" fill="#2E2E2E"/>
<path d="M226.453 87.6268C214.214 83.9281 216.17 88.0722 216.48 96.1668C216.79 104.242 220.605 139.041 222.638 144.425C224.652 149.808 231.294 152.635 231.623 146.438C231.953 140.242 230.035 123.936 229.241 107.825C228.447 91.7322 229.28 88.4983 226.453 87.6268Z" fill="#2E2E2E"/>
<path d="M123.992 110.574C115.046 116.829 118.105 117.701 117.602 133.89C117.118 150.079 118.686 171.458 121.455 172.446C124.225 173.433 126.529 179.921 128.156 145.432C129.782 110.942 130.634 105.946 123.992 110.574Z" fill="#2E2E2E"/>
<path d="M233.908 194.541C233.424 194.541 233.018 194.135 233.018 193.651C233.018 193.166 233.405 192.76 233.908 192.76C234.083 192.76 238.227 192.682 241.054 188.596C244.249 183.987 239.369 155.346 237.278 143.108C237.2 142.624 237.53 142.159 238.014 142.081C238.498 142.004 238.963 142.333 239.04 142.817C244.133 172.756 245.121 185.885 242.526 189.623C239.137 194.483 234.121 194.541 233.908 194.541Z" fill="#2E2E2E"/>
<path d="M179.125 110.013C178.854 110.013 178.602 109.897 178.428 109.684L170.449 100.059L164.272 109.606C164.117 109.858 163.846 109.994 163.555 110.013C163.265 110.052 162.994 109.897 162.819 109.684L150.503 94.1335C150.31 93.9012 150.251 93.5913 150.348 93.3008L152.866 85.6129C153.021 85.1482 153.524 84.8964 153.989 85.032C154.454 85.1869 154.705 85.6904 154.57 86.1551L152.207 93.3783L163.458 107.573L169.616 98.0453C169.771 97.8129 170.023 97.658 170.314 97.6386C170.604 97.6192 170.875 97.7354 171.049 97.9678L179.086 107.67L196.379 84.4704L188.304 81.0428C187.839 80.8491 187.645 80.3263 187.82 79.8615C188.013 79.4161 188.536 79.2031 189.001 79.3774L198.141 83.2504C198.393 83.3666 198.587 83.5796 198.664 83.8507C198.742 84.1218 198.683 84.3929 198.509 84.6253L179.861 109.664C179.706 109.877 179.435 110.013 179.163 110.032C179.144 110.013 179.144 110.013 179.125 110.013Z" fill="#2E2E2E"/>
<path d="M174.497 133.348H168.842C168.338 133.348 167.951 132.941 167.951 132.457V100.911C167.951 100.408 168.358 100.021 168.842 100.021C169.345 100.021 169.733 100.427 169.733 100.911V131.547H173.586V103.526C173.586 103.022 173.993 102.635 174.477 102.635C174.961 102.635 175.368 103.041 175.368 103.526V132.438C175.387 132.941 175 133.348 174.497 133.348Z" fill="#2E2E2E"/>
<path d="M121.456 227.656C121.436 227.656 121.436 227.656 121.417 227.656C120.913 227.636 120.545 227.23 120.545 226.726L122.482 170.858C122.501 170.374 122.927 169.986 123.411 169.986C123.915 170.006 124.283 170.412 124.283 170.916L122.346 226.784C122.346 227.288 121.94 227.656 121.456 227.656Z" fill="#2E2E2E"/>
<path d="M228.738 191.114C228.854 189.061 230.035 143.418 230.035 143.418C229.919 141.926 229.842 140.416 229.861 138.906C229.706 138.867 229.551 138.847 229.396 138.809C229.145 138.751 228.874 138.828 228.68 138.983C228.467 139.138 228.351 139.39 228.351 139.661L226.918 194.483C226.898 194.967 227.286 195.393 227.789 195.393C228.273 195.452 228.699 195.025 228.699 194.522L228.777 191.307C228.757 191.288 228.738 191.211 228.738 191.114Z" fill="#2E2E2E"/>
<path d="M241.229 230.638C236.542 230.638 233.599 229.108 229.823 227.133C227.615 225.971 225.117 224.673 221.747 223.453C219.695 222.717 217.836 222.059 216.151 221.459C207.379 218.36 203.757 217.063 203.176 214.913C202.963 214.1 203.215 213.248 203.951 212.396C207.301 208.484 220.314 213.519 222.89 214.584C223.355 214.778 223.568 215.301 223.374 215.746C223.18 216.211 222.658 216.424 222.212 216.23C216.713 213.984 207.262 211.273 205.326 213.558C204.997 213.945 204.861 214.236 204.919 214.449C205.248 215.688 210.07 217.411 216.751 219.774C218.436 220.374 220.314 221.033 222.367 221.769C225.853 223.027 228.409 224.363 230.675 225.545C237.762 229.243 241.674 231.277 262.491 223.337C292.604 211.834 305.404 187.008 299.556 151.57C293.204 113.44 230.849 88.3434 197.696 84.9932C197.212 84.9351 196.844 84.5091 196.902 84.0056C196.96 83.5214 197.386 83.1535 197.89 83.2116C229.552 86.4068 294.521 110.361 301.28 151.28C307.302 187.686 294.095 213.171 263.092 225.022C252.325 229.127 245.896 230.638 241.229 230.638Z" fill="#2E2E2E"/>
<path d="M206.662 212.318C206.546 212.318 206.411 212.299 206.294 212.241C206.159 212.183 203.08 210.75 202.847 207.884C202.77 207.032 203.196 206.218 204.009 205.599C206.488 203.72 213.285 203.256 224.885 207.574C225.35 207.748 225.582 208.271 225.408 208.717C225.233 209.181 224.711 209.414 224.265 209.239C212.569 204.882 206.701 205.792 205.094 207.012C204.919 207.148 204.61 207.438 204.629 207.729C204.784 209.549 207.011 210.595 207.03 210.614C207.476 210.827 207.669 211.35 207.476 211.796C207.321 212.125 206.991 212.318 206.662 212.318Z" fill="#2E2E2E"/>
<path d="M206.662 205.986C206.546 205.986 206.411 205.967 206.294 205.909C206.159 205.85 203.08 204.417 202.847 201.551C202.77 200.699 203.196 199.886 204.009 199.266C206.314 197.523 212.298 196.981 222.387 200.351C220.47 197.64 216.868 193.36 213.285 193.67C210.225 193.883 208.25 193.089 207.998 191.52C207.727 189.836 209.644 188.189 212.878 187.337C219.23 185.672 225.621 188.964 230.017 196.187C230.268 196.613 230.133 197.156 229.726 197.427C229.3 197.678 228.758 197.543 228.506 197.117C224.556 190.61 218.901 187.609 213.363 189.08C210.671 189.797 209.722 190.901 209.78 191.23C209.819 191.462 210.69 192.082 213.169 191.888C219.482 191.404 225.137 201.222 225.369 201.648C225.563 201.977 225.524 202.384 225.272 202.675C225.02 202.965 224.633 203.062 224.284 202.926C212.588 198.569 206.72 199.479 205.113 200.699C204.939 200.835 204.629 201.106 204.648 201.416C204.803 203.217 207.03 204.282 207.05 204.301C207.495 204.514 207.689 205.037 207.495 205.483C207.321 205.792 207.011 205.986 206.662 205.986Z" fill="#2E2E2E"/>
<path d="M229.416 138.828C229.222 138.789 229.009 138.828 228.835 138.906C229.319 139.506 229.784 140.145 230.21 140.784C252.247 145.141 263.286 155.424 263.053 171.323C262.821 187.338 244.172 194.851 238.905 195.529C236.562 195.839 235.574 194.541 233.405 191.307C232.34 189.719 230.559 187.144 228.719 185.033C228.157 184.82 228.08 185.304 227.499 185.149C227.48 185.866 227.46 186.602 227.422 187.318C227.402 187.57 227.267 187.725 227.073 187.783L226.899 194.464C226.879 194.948 227.267 195.374 227.77 195.374C228.254 195.432 228.68 195.006 228.68 194.503L228.855 188.054C230.113 189.623 231.101 191.075 231.914 192.295C233.851 195.18 235.303 197.349 238.247 197.349C238.537 197.349 238.828 197.33 239.137 197.291C244.734 196.555 264.583 188.519 264.835 171.323C265.087 154.204 253.177 143.243 229.416 138.828Z" fill="#2E2E2E"/>
<path d="M252.596 149.537C252.17 149.537 251.783 149.227 251.705 148.782C250.04 138.828 252.383 128.487 257.979 121.128C261.91 115.958 267.158 112.801 272.794 112.22C273.297 112.162 273.723 112.53 273.781 113.014C273.839 113.498 273.471 113.944 272.987 114.002C267.778 114.544 263.092 117.391 259.412 122.213C254.106 129.184 251.879 139.002 253.467 148.472C253.545 148.956 253.216 149.421 252.731 149.498C252.693 149.537 252.635 149.537 252.596 149.537Z" fill="#2E2E2E"/>
<path d="M65.4518 188.189C58.248 188.189 48.3524 184.355 41.7102 166.404C41.5359 165.939 41.7683 165.416 42.2331 165.261C42.6978 165.087 43.2013 165.319 43.3756 165.784C48.4105 179.378 56.2146 186.505 65.6648 186.389C79.6851 186.214 95.7387 170.122 103.039 148.937C114.213 116.442 133.442 102.325 150.774 92.7779C151.2 92.5455 151.742 92.7004 151.994 93.1264C152.227 93.5525 152.072 94.0947 151.646 94.3464C134.624 103.719 115.723 117.584 104.743 149.517C97.2104 171.381 80.4403 188.015 65.7035 188.189C65.6261 188.189 65.5292 188.189 65.4518 188.189Z" fill="#2E2E2E"/>
<path d="M72.0748 227.597C69.0151 227.597 65.8392 227.346 62.5278 226.803C33.9837 222.117 15.9936 201.338 9.04152 165.029C6.69835 152.81 3.90978 119.947 9.31263 114.409C9.6612 114.06 10.2228 114.06 10.5714 114.389C10.9199 114.738 10.9393 115.299 10.5907 115.648C6.42723 119.908 7.74406 148.801 10.8037 164.68C17.6009 200.157 35.1069 220.471 62.8183 225.022C100.038 231.141 121.456 198.666 121.669 198.337C121.94 197.93 122.482 197.795 122.908 198.066C123.315 198.337 123.45 198.879 123.179 199.305C122.985 199.634 104.531 227.597 72.0748 227.597Z" fill="#2E2E2E"/>
<path d="M12.5852 146.903C12.1205 146.903 11.7138 146.535 11.6944 146.07C11.6944 145.974 11.1328 136.31 11.6944 124.595C11.7138 124.11 12.1592 123.704 12.6239 123.743C13.1081 123.762 13.4954 124.188 13.476 124.672C12.9144 136.291 13.476 145.857 13.476 145.954C13.4954 146.438 13.1274 146.864 12.6433 146.903C12.6046 146.903 12.5852 146.903 12.5852 146.903Z" fill="#2E2E2E"/>
<path d="M16.9231 151.357C16.865 151.357 16.8069 151.357 16.7489 151.338C16.2647 151.241 15.9549 150.776 16.0323 150.292C16.0517 150.215 17.4073 143.069 18.2981 128.952C18.3368 128.468 18.7435 128.061 19.2469 128.119C19.7311 128.158 20.1184 128.584 20.0796 129.068C19.1889 143.321 17.7946 150.563 17.7752 150.641C17.7171 151.047 17.3298 151.357 16.9231 151.357Z" fill="#2E2E2E"/>
<path d="M30.6334 159.742C29.6651 159.103 28.7743 160.652 29.7232 161.291C33.7318 163.906 36.2105 168.127 36.5397 172.91C36.6172 174.053 38.3988 174.053 38.3213 172.91C37.9727 167.469 35.2035 162.724 30.6334 159.742Z" fill="#2E2E2E"/>
<path d="M122.424 194.541C121.978 194.541 121.591 194.212 121.533 193.767C119.48 178.855 109.856 169.308 95.1384 167.566C94.6542 167.508 94.3057 167.062 94.3637 166.578C94.4218 166.094 94.8672 165.726 95.3514 165.803C110.94 167.643 121.146 177.752 123.315 193.534C123.392 194.018 123.043 194.483 122.559 194.541C122.501 194.541 122.462 194.541 122.424 194.541Z" fill="#2E2E2E"/>
<path d="M123.063 180.676C118.59 194.328 107.474 214.294 107.474 214.294L122.424 198.84L123.063 180.676Z" fill="#2E2E2E"/>
</svg>
